# xmcd
#
# Track frame offsets:
#	150
#	28629
#	54167
#	88639
#
# Disc length: 1659 seconds
#
# Revision: 1
# Processed by: cddbd v1.5.2PL0 Copyright (c) Steve Scherf et al.
# Submitted via: audiograbber 1.83.01
#
DISCID=24067904
DTITLE=Grateful Dead - 78-01-22A McArthur Court, Uni of Oregon, Eugene OR
DYEAR=1900
DGENRE=
TTITLE0=Bertha
TTITLE1=Good Lovin'
TTITLE2=Ship Of Fools
TTITLE3=Samson and Delilah
EXTD=
EXTT0=
EXTT1=
EXTT2=
EXTT3=
PLAYORDER=
